<?xml version="1.0" encoding="UTF-8"?>
<!DOCTYPE svg PUBLIC "-//W3C//DTD SVG 1.1//EN" "http://www.w3.org/Graphics/SVG/1.1/DTD/svg11.dtd">
<!-- Creator: CorelDRAW 2019 (64-Bit) -->
<?xml-stylesheet href="Logo-1.css" type="text/css"?>
<svg xmlns="http://www.w3.org/2000/svg" xml:space="preserve" width="63.4998mm" height="52.9166mm" version="1.1" style="shape-rendering:geometricPrecision; text-rendering:geometricPrecision; image-rendering:optimizeQuality; fill-rule:evenodd; clip-rule:evenodd"
viewBox="0 0 6349.98 5291.66"
 xmlns:xlink="http://www.w3.org/1999/xlink"
 xmlns:xodm="http://www.corel.com/coreldraw/odm/2003">
 <g id="Слой_x0020_1">
  <metadata id="CorelCorpID_0Corel-Layer"/>
  <g id="_2249619837744">
   <rect class="fil0" transform="matrix(1.25346 -2.04397 1.69053 0.997604 -234.427 4921.96)" width="2489.2" height="541.87" rx="252.64" ry="252.64"/>
   <rect class="fil0" x="2985.24" y="4406.04" width="3362.85" height="884.79" rx="366.03" ry="442.4"/>
   <rect class="fil0" transform="matrix(4.40566E-14 -2.04179 1.66348 5.40758E-14 2881.19 5203.23)" width="2489.2" height="541.87" rx="270.94" ry="270.94"/>
   <rect class="fil0" x="2863.87" y="-0.84" width="3466.88" height="884.79" rx="377.36" ry="442.4"/>
   <path class="fil0" d="M2876.86 51.75c24.34,-12.86 82.27,-40.89 98.13,-43.55 9.69,-2.01 20.08,-2.85 31.76,-3.11l48.31 -0.57 291.13 -5.37 0 101.42 -470.74 6.06 1.41 -54.88z"/>
  </g>
 </g>
</svg>
